<svg width="240" height="180" viewBox="0 0 240 180" fill="none" xmlns="http://www.w3.org/2000/svg">
  <rect width="240" height="180" rx="24" fill="#FFF7ED"/>
  <rect x="18" y="18" width="204" height="144" rx="18" fill="url(#bg)"/>
  <path d="M120 38C129 38 136 45 136 54V63C151 67 161 79 161 95V111C161 129 147 144 129 144H111C93 144 79 129 79 111V95C79 79 89 67 104 63V54C104 45 111 38 120 38Z" fill="#101828"/>
  <path d="M120 52C125 52 128 55 128 60V66H112V60C112 55 115 52 120 52Z" fill="#F97316"/>
  <ellipse cx="120" cy="92" rx="50" ry="32" fill="#F97316" fill-opacity="0.18"/>
  <ellipse cx="120" cy="114" rx="34" ry="24" fill="#F97316" fill-opacity="0.1"/>
  <circle cx="62" cy="92" r="10" fill="#FDBA74"/>
  <circle cx="178" cy="92" r="10" fill="#FDBA74"/>
  <path d="M92 150H148" stroke="#FDBA74" stroke-width="4" stroke-linecap="round"/>
  <defs>
    <linearGradient id="bg" x1="32" y1="28" x2="200" y2="152" gradientUnits="userSpaceOnUse">
      <stop stop-color="#FFE7D6"/>
      <stop offset="1" stop-color="#FFF3E8"/>
    </linearGradient>
  </defs>
</svg>
