<svg width="240" height="180" viewBox="0 0 240 180" fill="none" xmlns="http://www.w3.org/2000/svg">
  <rect width="240" height="180" rx="24" fill="#F0FDF4"/>
  <rect x="18" y="18" width="204" height="144" rx="18" fill="url(#bg)"/>
  <path d="M120 38C129 38 136 45 136 54V64C147 68 154 79 154 91V103C154 111 151 118 146 124C153 129 158 138 158 148H82C82 138 87 129 94 124C89 118 86 111 86 103V91C86 79 93 68 104 64V54C104 45 111 38 120 38Z" fill="#101828"/>
  <path d="M120 52C125 52 128 55 128 60V66H112V60C112 55 115 52 120 52Z" fill="#22C55E"/>
  <ellipse cx="120" cy="86" rx="32" ry="24" fill="#22C55E" fill-opacity="0.12"/>
  <ellipse cx="120" cy="124" rx="52" ry="30" fill="#22C55E" fill-opacity="0.2"/>
  <circle cx="72" cy="126" r="10" fill="#86EFAC"/>
  <circle cx="168" cy="126" r="10" fill="#86EFAC"/>
  <path d="M90 150H150" stroke="#86EFAC" stroke-width="4" stroke-linecap="round"/>
  <defs>
    <linearGradient id="bg" x1="28" y1="24" x2="206" y2="154" gradientUnits="userSpaceOnUse">
      <stop stop-color="#DCFCE7"/>
      <stop offset="1" stop-color="#F0FDF4"/>
    </linearGradient>
  </defs>
</svg>
